<?xml version="1.0" encoding="utf-8"?>
<!-- Generator: Adobe Illustrator 24.3.0, SVG Export Plug-In . SVG Version: 6.00 Build 0)  -->
<svg version="1.1" id="Layer_1" xmlns="http://www.w3.org/2000/svg" xmlns:xlink="http://www.w3.org/1999/xlink" x="0px" y="0px"
	 viewBox="0 0 480 480" style="enable-background:new 0 0 480 480;" xml:space="preserve">
<style type="text/css">
	.st0{fill:#FDEEDA;}
	.st1{fill:#2B1B20;}
	.st2{fill:none;stroke:#FDEEDA;stroke-width:6;stroke-miterlimit:10;}
	.st3{fill:none;stroke:#2B1B20;stroke-width:2;stroke-miterlimit:10;}
	.st4{fill:#CA5743;}
	.st5{fill:none;stroke:#2B1B20;stroke-width:3;stroke-miterlimit:10;}
	.st6{fill:none;stroke:#2B1B1F;stroke-width:2;stroke-miterlimit:10;}

.bottlebody {animation: outline 3s ease-in-out infinite;
stroke-dasharray: 700px;
stroke-dashoffset: 0px;}

@keyframes outline {
0% {stroke-dashoffset: -700px;}
50% {stroke-dashoffset: 0px;}
100% {stroke-dashoffset: 0px;}

}

.bottlelabel {animation: outline2 3s ease-in-out infinite;
stroke-dasharray: 500px;
stroke-dashoffset: 0px;}

@keyframes outline2 {
0% {stroke-dashoffset: -500px;}
10% {stroke-dashoffset: -500px;}
60% {stroke-dashoffset: 0px;}
100% {stroke-dashoffset: 0px;}

}

.lotionbody {animation: outline3 3s ease-in-out infinite;
stroke-dasharray: 400px;
stroke-dashoffset: 0px;}

@keyframes outline3 {
0% {stroke-dashoffset: 400px;}
50% {stroke-dashoffset: 0px;}
}

.lotionlabel {animation: outline4 3s ease-in-out infinite;
stroke-dasharray: 350px;
stroke-dashoffset: 0px;}

@keyframes outline4 {
0% {stroke-dashoffset: -350px;}
10% {stroke-dashoffset: -350px;}
60% {stroke-dashoffset: 0px;}
}

</style>
<rect class="st0" width="480" height="480"/>

<!--lotion lid-->
<g class="lotionlid">
	<path class="st1" d="M232.5,280.5c0,2.5,2,4.5,4.5,4.5h118.5c2.5,0,4.5-2,4.5-4.5v-25.3c0-2.5-2-4.5-4.5-4.5H237
		c-2.5,0-4.5,2-4.5,4.5V280.5z"/>
	<path class="st2" d="M232.5,280.5c0,2.5,2,4.5,4.5,4.5h118.5c2.5,0,4.5-2,4.5-4.5v-25.3c0-2.5-2-4.5-4.5-4.5H237
		c-2.5,0-4.5,2-4.5,4.5V280.5z"/>
	<path class="st3" d="M232.5,280.5c0,2.5,2,4.5,4.5,4.5h118.5c2.5,0,4.5-2,4.5-4.5v-25.3c0-2.5-2-4.5-4.5-4.5H237
		c-2.5,0-4.5,2-4.5,4.5V280.5z"/>
</g>
<!--lotion body-->
<g class="lotionbody">
	<path class="st4" d="M360,291.1c0-2.2-1.8-4-4-4H236.5c-2.2,0-4,1.8-4,4V356c0,2.2,1.8,4,4,4H356c2.2,0,4-1.8,4-4V291.1z"/>
	<path class="st3" d="M360,291.1c0-2.2-1.8-4-4-4H236.5c-2.2,0-4,1.8-4,4V356c0,2.2,1.8,4,4,4H356c2.2,0,4-1.8,4-4V291.1z"/>
</g>
<!--lotion label-->
<g class="lotionlabel">
	<path class="st0" d="M359.8,341.8H232.7c-0.1,0-0.2-0.1-0.2-0.2v-36.1c0-0.1,0.1-0.2,0.2-0.2h127.2c0.1,0,0.2,0.1,0.2,0.2v36.1
		C360,341.7,359.9,341.8,359.8,341.8z"/>
	<path class="st3" d="M359.8,341.8H232.7c-0.1,0-0.2-0.1-0.2-0.2v-36.1c0-0.1,0.1-0.2,0.2-0.2h127.2c0.1,0,0.2,0.1,0.2,0.2v36.1
		C360,341.7,359.9,341.8,359.8,341.8z"/>
</g>
<!--bottle pump-->
<g class="bottlepump">
	<path class="st1" d="M198.5,127.5c2.2,0,4-1.7,4-3.8s-1.8-3.8-4-3.8h-22c-2.2,0-5.8,0-8,0h-7c-2.2,0-5.7,0-7.8,0s-3.8,1.7-3.8,3.8
		s1.7,3.8,3.8,3.8s3.8,1.8,3.8,4v22c0,2.2-1.7,4-3.8,4s-3.8,1.8-3.8,4V176c0,2.2,1.8,4,4,4h22c2.2,0,4-1.8,4-4v-14.5
		c0-2.2-1.7-4-3.8-4s-3.8-1.8-3.8-4v-22c0-2.2,1.8-4,4-4H198.5z"/>
	<path class="st5" d="M198.5,127.5c2.2,0,4-1.7,4-3.8s-1.8-3.8-4-3.8h-22c-2.2,0-5.8,0-8,0h-7c-2.2,0-5.7,0-7.8,0s-3.8,1.7-3.8,3.8
		s1.7,3.8,3.8,3.8s3.8,1.8,3.8,4v22c0,2.2-1.7,4-3.8,4s-3.8,1.8-3.8,4V176c0,2.2,1.8,4,4,4h22c2.2,0,4-1.8,4-4v-14.5
		c0-2.2-1.7-4-3.8-4s-3.8-1.8-3.8-4v-22c0-2.2,1.8-4,4-4H198.5z"/>
</g>
<!--bottle body-->
<g class="bottlebody">
	<path class="st0" d="M210,356c0,2.2-1.8,4-4,4h-82c-2.2,0-4-1.8-4-4V184c0-2.2,1.8-4,4-4h82c2.2,0,4,1.8,4,4V356z"/>
	<path class="st3" d="M210,356c0,2.2-1.8,4-4,4h-82c-2.2,0-4-1.8-4-4V184c0-2.2,1.8-4,4-4h82c2.2,0,4,1.8,4,4V356z"/>
</g>
<!--bottle label-->
<g class="bottlelabel">
	<path class="st4" d="M209.9,330H120c0,0,0,0,0,0V210c0,0,0,0,0,0h89.8c0,0,0,0,0,0L209.9,330C209.9,330,209.9,330,209.9,330z"/>
	<path class="st6" d="M209.9,330H120c0,0,0,0,0,0V210c0,0,0,0,0,0h89.8c0,0,0,0,0,0L209.9,330C209.9,330,209.9,330,209.9,330z"/>
</g>
</svg>
