<?xml version="1.0" encoding="utf-8"?>
<!-- Generator: Adobe Illustrator 24.3.0, SVG Export Plug-In . SVG Version: 6.00 Build 0)  -->
<svg version="1.1" id="Layer_1" xmlns="http://www.w3.org/2000/svg" xmlns:xlink="http://www.w3.org/1999/xlink" x="0px" y="0px"
	 viewBox="0 0 480 480" style="enable-background:new 0 0 480 480;" xml:space="preserve">
<style type="text/css">
	.st0{fill:#2B1B20;}
	.st1{fill:#2B1B20;stroke:#FDEEDA;stroke-width:3;stroke-miterlimit:10;}
	.st2{fill:#FDEEDA;}
	.st3{fill:none;stroke:#2B1B20;stroke-width:2;stroke-miterlimit:10;}
	.st4{fill:#CA5743;}
	.st5{fill:none;stroke:#2B1B20;stroke-width:3;stroke-miterlimit:10;}

#vinyl {animation: slide 3s ease-in-out infinite;}

@keyframes slide {
0% {transform: translate(0px, 0px);}
50% {transform: translate(15px, 0px);}
}

#backsleeve {animation: slide2 3s ease-in-out infinite;}
#frontsleeve {animation: slide2 3s ease-in-out infinite;}


@keyframes slide2 {
0% {transform: translate(0px, 0px);}
50% {transform: translate(-15px, 0px);}
}

</style>
<rect y="-0.6" class="st0" width="480" height="480"/>

<circle class="st1" cx="308.8" cy="241" r="85.6"/>
<g id="backsleeve">
	<path class="st2" d="M307.5,356c0,2.2-1.8,4-4,4h-232c-2.2,0-4-1.8-4-4V124c0-2.2,1.8-4,4-4h232c2.2,0,4,1.8,4,4V356z"/>
	<path class="st3" d="M307.5,356c0,2.2-1.8,4-4,4h-232c-2.2,0-4-1.8-4-4V124c0-2.2,1.8-4,4-4h232c2.2,0,4,1.8,4,4V356z"/>
</g>

<g id="vinyl">
	<path class="st4" d="M300,354c-62.9,0-114-51.1-114-114c0-62.9,51.1-114,114-114c62.9,0,114,51.1,114,114
		C414,302.9,362.9,354,300,354z M300,214.8c-13.9,0-25.2,11.3-25.2,25.2c0,13.9,11.3,25.2,25.2,25.2s25.2-11.3,25.2-25.2
		C325.2,226.1,313.9,214.8,300,214.8z"/>
	<path class="st2" d="M300,127.5c62.1,0,112.5,50.4,112.5,112.5S362.1,352.5,300,352.5S187.5,302.1,187.5,240S237.9,127.5,300,127.5
		 M300,266.7c14.8,0,26.7-12,26.7-26.7s-12-26.7-26.7-26.7s-26.7,12-26.7,26.7S285.2,266.7,300,266.7 M300,124.5
		c-30.9,0-59.9,12-81.7,33.8c-21.8,21.8-33.8,50.8-33.8,81.7s12,59.9,33.8,81.7c21.8,21.8,50.8,33.8,81.7,33.8s59.9-12,81.7-33.8
		c21.8-21.8,33.8-50.8,33.8-81.7s-12-59.9-33.8-81.7C359.9,136.5,330.9,124.5,300,124.5L300,124.5z M300,263.7
		c-13.1,0-23.7-10.6-23.7-23.7s10.6-23.7,23.7-23.7s23.7,10.6,23.7,23.7S313.1,263.7,300,263.7L300,263.7z"/>
	<path class="st3" d="M300,127.5c-62.1,0-112.5,50.4-112.5,112.5S237.9,352.5,300,352.5S412.5,302.1,412.5,240
		S362.1,127.5,300,127.5z M300,266.7c-14.8,0-26.7-12-26.7-26.7s12-26.7,26.7-26.7s26.7,12,26.7,26.7S314.8,266.7,300,266.7z"/>
</g>

<g id="frontsleeve">
	<path class="st2" d="M300,356c0,2.2-1.8,4-4,4H64c-2.2,0-4-1.8-4-4V124c0-2.2,1.8-4,4-4h232c2.2,0,4,1.8,4,4V356z"/>
	<path class="st5" d="M300,356c0,2.2-1.8,4-4,4H64c-2.2,0-4-1.8-4-4V124c0-2.2,1.8-4,4-4h232c2.2,0,4,1.8,4,4V356z"/>
	<path class="st3" d="M300,356c0,2.2-1.8,4-4,4H64c-2.2,0-4-1.8-4-4V124c0-2.2,1.8-4,4-4h232c2.2,0,4,1.8,4,4V356z"/>
</g>
</svg>
