<?xml version="1.0" encoding="utf-8"?>
<!-- Generator: Adobe Illustrator 24.3.0, SVG Export Plug-In . SVG Version: 6.00 Build 0)  -->
<svg version="1.1" id="Layer_1" xmlns="http://www.w3.org/2000/svg" xmlns:xlink="http://www.w3.org/1999/xlink" x="0px" y="0px"
	 viewBox="0 0 480 480" style="enable-background:new 0 0 480 480;" xml:space="preserve">
<style type="text/css">
	.st0{fill:#2B1B20;}
	.st1{fill:none;stroke:#FDEEDA;stroke-width:2.0331;stroke-miterlimit:10;}
	.st2{fill:#2B1B20;stroke:#FDEEDA;stroke-width:2;stroke-miterlimit:10;}
	.st3{fill:#CA5743;}
	.top, .bottom{fill:#FDEEDA;stroke:#2B1B20;stroke-width:2;stroke-linecap:round;stroke-linejoin:round;}
	.st5{fill:#FDEEDA;}
	.st6{fill:none;stroke:#2B1B20;stroke-width:2;stroke-miterlimit:10;}

.top {animation: logo 3s ease-in-out infinite;
stroke-dasharray: 200px;
stroke-dashoffset: 0px;}

@keyframes logo {
0% {stroke-dashoffset: 200px;
fill: none;}
50% {stroke-dashoffset: 0px;
fill: 100%;}
75% {fill: 100%;}
}

.bottom {animation: logo2 3s ease-in-out infinite;
stroke-dasharray: 150px;
stroke-dashoffset: 0px;}

@keyframes logo2 {
0% {stroke-dashoffset: 150px;
fill: none;}
50% {stroke-dashoffset: 0px;
fill: 100%;}
}


</style>
<rect class="st0" width="480" height="480"/>

<g>
	<path class="st0" d="M405,348.3c0,2.4-1.9,4.2-4.1,4.2H79.1c-2.3,0-4.1-2-4.1-4.2v-224c0-2.4,1.9-4.2,4.1-4.2h321.7
		c2.3,0,4.1,2,4.1,4.2L405,348.3L405,348.3z"/>
	<path class="st1" d="M405,348.3c0,2.4-1.9,4.2-4.1,4.2H79.1c-2.3,0-4.1-2-4.1-4.2v-224c0-2.4,1.9-4.2,4.1-4.2h321.7
		c2.3,0,4.1,2,4.1,4.2L405,348.3L405,348.3z"/>
</g>
<circle class="st2" cx="240" cy="127.6" r="3.2"/>
<g>
	<path class="st3" d="M397.5,333.2c0,2.4-1.8,4.3-4,4.3h-307c-2.2,0-4-1.9-4-4.3V139.3c0-2.4,1.8-4.3,4-4.3h307c2.2,0,4,1.9,4,4.3
		V333.2z"/>
</g>

<g id="logo">
	<polygon class="top" points="269.8,203.9 210,227.4 210,245.1 269.8,221.6 	"/>
	<path class="bottom" d="M243.1,240.4c-4.3-1.6-9,0.6-10.6,4.8c-0.3,0.9-0.5,1.9-0.5,2.9l0,0c0,3.4,2,6.4,5.2,7.6l32.7,12.9v-17.7
		L243.1,240.4z"/>
</g>

<g>
	<path class="st5" d="M420,358c0,1.1-1.8,2-4,2H64c-2.2,0-4-0.9-4-2v-11c0-1.1,1.8-2,4-2h352c2.2,0,4,0.9,4,2V358z"/>
</g>
<path class="st6" d="M264.8,345L264.8,345c-0.1,4.3-2.8,7.6-6,7.5l0,0H216c-3.2,0.2-5.9-3.2-6-7.5l0,0l0,0"/>
</svg>
