<?xml version="1.0" encoding="utf-8"?>
<!-- Generator: Adobe Illustrator 24.3.0, SVG Export Plug-In . SVG Version: 6.00 Build 0)  -->
<svg version="1.1" id="Layer_1" xmlns="http://www.w3.org/2000/svg" xmlns:xlink="http://www.w3.org/1999/xlink" x="0px" y="0px"
	 viewBox="0 0 480 480" style="enable-background:new 0 0 480 480;" xml:space="preserve">
<style type="text/css">
	.st0{fill:#FEEFDC;}
	.st1{fill:#CA5743;}
	.st2{fill:none;stroke:#000000;stroke-width:2;stroke-miterlimit:10;}


	#pages {animation: slide 3s ease-in-out infinite;}

	@keyframes slide {
	20% {transform: translate(0px, 0px);}
	70% {transform: translate(15px, 0px);}
	}

	#sleeve {animation: slide2 3s ease-in-out infinite;}
	#frontsleeve {animation: slide2 3s ease-in-out infinite;}

	@keyframes slide2 {
	20% {transform: translate(0px, 0px);}
	70% {transform: translate(-15px, 0px);}
	}
</style>

<rect x="0.2" y="0.3" class="st0" width="480" height="480"/>
<g id="pages">
	<path class="st2" d="M375,356c0,2.2-1.8,4-4,4H124c-2.2,0-4-1.8-4-4V124c0-2.2,1.8-4,4-4h247c2.2,0,4,1.8,4,4V356z"/>
</g>
<g id="sleeve">
	<path class="st1" d="M124,120c-2.2,0-4,1.8-4,4v232c0,2.2,1.8,4,4,4h232c2.2,0,4-1.8,4-4V228.7c0-2.2-1.8-4-4-4h-52
		c-2.2,0-4-1.7-4-3.8s1.8-3.8,4-3.8h52c2.2,0,4-1.8,4-4v-14.5c0-2.2-1.8-4-4-4H244c-2.2,0-4-1.8-4-4v-7c0-2.2,1.8-4,4-4h112
		c2.2,0,4-1.8,4-4V124c0-2.2-1.8-4-4-4H124z M345,205.9c0-2.1,1.7-3.8,3.8-3.8s3.8,1.7,3.8,3.8s-1.7,3.8-3.8,3.8S345,208,345,205.9z
		 M292.5,205.9c0-2.1,1.8-3.8,4-3.8h37c2.2,0,4,1.7,4,3.8s-1.8,3.8-4,3.8h-37C294.3,209.7,292.5,208,292.5,205.9z M262.5,220.9
		c0-2.1,1.8-3.8,4-3.8H281c2.2,0,4,1.7,4,3.8s-1.8,3.8-4,3.8h-14.5C264.3,224.7,262.5,223,262.5,220.9z M247.5,220.9
		c0-2.1,1.7-3.8,3.8-3.8s3.8,1.7,3.8,3.8s-1.7,3.8-3.8,3.8S247.5,223,247.5,220.9z"/>
	<path class="st2" d="M124,120c-2.2,0-4,1.8-4,4v232c0,2.2,1.8,4,4,4h232c2.2,0,4-1.8,4-4V228.7c0-2.2-1.8-4-4-4h-52
		c-2.2,0-4-1.7-4-3.8s1.8-3.8,4-3.8h52c2.2,0,4-1.8,4-4v-14.5c0-2.2-1.8-4-4-4H244c-2.2,0-4-1.8-4-4v-7c0-2.2,1.8-4,4-4h112
		c2.2,0,4-1.8,4-4V124c0-2.2-1.8-4-4-4H124z M345,205.9c0-2.1,1.7-3.8,3.8-3.8s3.8,1.7,3.8,3.8s-1.7,3.8-3.8,3.8S345,208,345,205.9z
		 M292.5,205.9c0-2.1,1.8-3.8,4-3.8h37c2.2,0,4,1.7,4,3.8s-1.8,3.8-4,3.8h-37C294.3,209.7,292.5,208,292.5,205.9z M262.5,220.9
		c0-2.1,1.8-3.8,4-3.8H281c2.2,0,4,1.7,4,3.8s-1.8,3.8-4,3.8h-14.5C264.3,224.7,262.5,223,262.5,220.9z M247.5,220.9
		c0-2.1,1.7-3.8,3.8-3.8s3.8,1.7,3.8,3.8s-1.7,3.8-3.8,3.8S247.5,223,247.5,220.9z"/>
</g>

</svg>
