<?xml version="1.0" encoding="utf-8"?>
<!-- Generator: Adobe Illustrator 24.3.0, SVG Export Plug-In . SVG Version: 6.00 Build 0)  -->
<svg version="1.1" id="Layer_1" xmlns="http://www.w3.org/2000/svg" xmlns:xlink="http://www.w3.org/1999/xlink" x="0px" y="0px"
	 viewBox="0 0 480 480" style="enable-background:new 0 0 480 480;" xml:space="preserve">
<style type="text/css">
	.st0{fill:#CA5743;}
	.st1{fill:#FDEEDA;stroke:#2B1B20;stroke-width:2;stroke-miterlimit:10;}
	.st2, .arrow{fill:#2B1B20;}
	.st3{fill:#CA5743;stroke:#2B1B20;stroke-width:5;stroke-miterlimit:10;}
	.st4{fill:#FDEEDA;stroke:#2B1B20;stroke-width:5;stroke-miterlimit:10;}
	.st5{fill:#CA5743;stroke:#2B1B20;stroke-width:2;stroke-miterlimit:10;}
	.st6, .panel2, .panel3, .panel4 {fill:none;stroke:#2B1B20;stroke-width:2;stroke-miterlimit:10;}

.panel2 {animation: panel2 3s ease-in-out infinite;
stroke-dasharray: 400px;
stroke-dashoffset: 0px;}

@keyframes panel2{
0% {stroke-dashoffset: -400px;}
50% {stroke-dashoffset: 0px;}
}

.panel3 {animation: panel3 3s ease-in-out infinite;
stroke-dasharray: 600px;
stroke-dashoffset: 0px;}

@keyframes panel3{
0% {stroke-dashoffset: -600px;}
5% {stroke-dashoffset: -600px;}
55% {stroke-dashoffset: 0px;}
}

.panel4 {animation: panel4 3s ease-in-out infinite;
stroke-dasharray: 600px;
stroke-dashoffset: 0px;}

@keyframes panel4{
0% {stroke-dashoffset: -600px;}
10% {stroke-dashoffset: -600px;}
60% {stroke-dashoffset: 0px;}
}

#arrow {animation: arrow 3s ease-in-out infinite;}

@keyframes arrow {
0% {transform: translate(0px, 0px;)}
50% {transform: translate(100px, 0px;)}
}


</style>
<rect class="st0" width="480" height="480"/>

<!--screen background-->
<path class="st1" d="M64.1,120H416c2.2,0,4.1,2,4.1,4.6v230.8c0,2.5-1.8,4.6-4.1,4.6H64.1c-2.2,0-4.1-2-4.1-4.6V124.6
	C60,122,61.8,120,64.1,120z"/>

<!--navbar background-->
<path class="st2" d="M62.7,120h353.9c1.9,0,3.4,1.8,3.4,3.9l0,0V150l0,0H60l0,0v-26.9C60,121.4,61.2,120,62.7,120z"/>
<!--navbar circles-->
<circle class="st3" cx="75" cy="135" r="7.5"/>
<circle class="st4" cx="105" cy="135" r="7.5"/>
<circle class="st4" cx="90" cy="135" r="7.5"/>

<!--left panel-->
<path class="st5" d="M70.3,157.5h77c1.5,0,2.8,1.2,2.8,2.6v189.7c0,1.5-1.2,2.6-2.8,2.6h-77c-1.5,0-2.8-1.2-2.8-2.6V160.1
	C67.5,158.7,68.7,157.5,70.3,157.5z"/>
<!--top middle panel-->
<path class="panel2" d="M159.8,157.5h77.8c1.3,0,2.3,1.2,2.3,2.7v84.6c0,1.5-1,2.7-2.3,2.7h-77.8c-1.3,0-2.3-1.2-2.3-2.7v-84.6
	C157.5,158.7,158.5,157.5,159.8,157.5z"/>
<!--top right panel-->
<path class="panel3" d="M249.6,157.5h160.7c1.2,0,2.1,1.2,2.1,2.7v84.6c0,1.5-1,2.7-2.1,2.7H249.6c-1.2,0-2.1-1.2-2.1-2.7v-84.6
	C247.5,158.7,248.5,157.5,249.6,157.5z"/>

<!--bottom middle-->
<path class="panel4" d="M159.7,255h160.5c1.2,0,2.2,1.1,2.2,2.5V350c0,1.4-1,2.5-2.2,2.5H159.7c-1.2,0-2.2-1.1-2.2-2.5v-92.4
	C157.5,256.1,158.5,255,159.7,255z"/>
<!--bottom right-->
<path class="st5" d="M332.2,255h78.2c1.2,0,2.2,1.1,2.2,2.5V350c0,1.4-1,2.5-2.2,2.5h-78.2c-1.2,0-2.2-1.1-2.2-2.5v-92.4
	C330,256.1,331,255,332.2,255z"/>
<!--arrow-->
<g id="arrow">
<path class="arrow" d="M276.4,227.7l-15.3-4.7c-0.1-0.1-0.3,0-0.4,0.1c0,0.1,0,0.2,0,0.3l2.8,17c0.1,0.3,0.4,0.4,0.6,0.2l4.6-4
	l3.2,3.7c0.3,0.2,0.7,0.2,1,0l3.4-2.9c0.3-0.3,0.3-0.7,0-1l0,0l-3.2-3.7l3.6-3.2c0.5-0.3,0.6-0.9,0.3-1.4
	C276.8,227.9,276.6,227.8,276.4,227.7z"/>
</g>
</svg>
