<?xml version="1.0" encoding="utf-8"?>
<!-- Generator: Adobe Illustrator 24.3.0, SVG Export Plug-In . SVG Version: 6.00 Build 0)  -->
<svg version="1.1" id="Layer_1" xmlns="http://www.w3.org/2000/svg" xmlns:xlink="http://www.w3.org/1999/xlink" x="0px" y="0px"
	 viewBox="0 0 480 480" style="enable-background:new 0 0 480 480;" xml:space="preserve">
<style type="text/css">
	.st0{fill:#FEEFDC;}
	.st1{fill:#CA5844;}
	.st2{fill:#231F20;}
	.star1, .star2, .star3, .star4, .star5, .st3{fill:none;stroke:#231F20;stroke-width:2;stroke-miterlimit:10;}
	.moon{fill:#CA5844;stroke:#231F20;stroke-width:2;stroke-miterlimit:10;}

#ring {animation: ring 3s ease-in-out infinite;
stroke-dasharray: 500px;
stroke-dashoffset: 0px;}

@keyframes ring {
0% {stroke-dashoffset: -500px;}
50% {stroke-dashoffset: 0;}
}
}

.moon {opacity:0;}



</style>


<rect class="st0" width="480" height="480"/>

<!--planet interior-->
<circle class="st1" cx="262.5" cy="240" r="91"/>
<!--planet dark outline-->
<path class="st2" d="M262.5,150c49.7,0,90,40.3,90,90s-40.3,90-90,90s-90-40.3-90-90S212.8,150,262.5,150 M262.5,148
	c-50.8,0-92,41.2-92,92s41.2,92,92,92s92-41.2,92-92C354.4,189.2,313.3,148.1,262.5,148z"/>
<!--planet light outline-->
<path class="st0" d="M262.5,152c48.6,0,88,39.4,88,88s-39.4,88-88,88s-88-39.4-88-88C174.6,191.4,213.9,152.1,262.5,152 M262.5,150
	c-49.7,0-90,40.3-90,90s40.3,90,90,90s90-40.3,90-90S312.2,150,262.5,150z"/>

<!--ring-->
<g id="ring">
<path class="st3" d="M345.9,203.8c42.4-6,71.9-4.1,74.9,6.6c4.9,17.2-60.3,50.7-145.6,74.8S116.7,315,111.9,297.8
	c-3.1-10.8,21.2-27.9,60.6-45"/>
<path class="st3" d="M345.9,203.8c42.4-6,71.9-4.1,74.9,6.6c4.9,17.2-60.3,50.7-145.6,74.8S116.7,315,111.9,297.8
	c-3.1-10.8,21.2-27.9,60.6-45"/>
</g>
<!--moon-->
<circle class="moon" cx="131.3" cy="273.8" r="11.3"/>

<!--star 5-->
<circle class="star5" cx="92.2" cy="354.5" r="3.8"/>
<!--star 4-->
<path class="star4" d="M63,328.8l3.4-3.4c1.6-1.6,4.1-1.6,5.7,0l3.4,3.4c1.6,1.6,1.6,4.1,0,5.7l-3.4,3.4c-1.6,1.6-4.1,1.6-5.7,0
	l-3.4-3.4C61.4,332.9,61.4,330.4,63,328.8z"/>
	<!--star 1-->
<circle class="star1" cx="75.6" cy="123.5" r="2.7"/>
<!--star 2-->
<circle class="star2" cx="92.2" cy="152.9" r="3.7"/>
<!--star 3-->
<circle class="star3" cx="363.8" cy="133.7" r="2.7"/>
</svg>
