<svg id="Layer_1" data-name="Layer 1" xmlns="http://www.w3.org/2000/svg" viewBox="0 0 585.8 58.1"><defs><style>.cls-1{fill:#fff;}</style></defs><path class="cls-1" d="M159.1,15C148.6,15,140,22.9,140,34.7s8.2,18.6,19.3,18.6c8.9,0,13.2-1.8,15.8-3.5V41.9a53.8,53.8,0,0,1-6.4,3.1,23.7,23.7,0,0,1-9.2.8c-4.8-.6-8.7-3.7-9.5-8.6h27.1s.1-3,.1-4.9C177.2,22.5,170.4,15,159.1,15Zm-9.2,15.9c.3-4.7,3.3-8.7,9.1-8.7s8.3,4.7,8.5,8.7Z"/><path class="cls-1" d="M323.6,15c-10.5,0-19.1,7.9-19.1,19.7s8.2,18.6,19.3,18.6c9,0,13.3-1.8,15.8-3.5V41.9a52.5,52.5,0,0,1-6.3,3.1,24.3,24.3,0,0,1-9.3.8c-4.8-.6-8.7-3.7-9.4-8.6h27s.1-3,.1-4.9C341.7,22.5,334.9,15,323.6,15Zm-9.2,15.9c.3-4.7,3.4-8.7,9.1-8.7s8.4,4.7,8.5,8.7Z"/><path class="cls-1" d="M489.5,15c-10.5,0-19.1,7.9-19.1,19.7s8.2,18.6,19.3,18.6c9,0,13.2-1.8,15.8-3.5V41.9a53.8,53.8,0,0,1-6.4,3.1,23.7,23.7,0,0,1-9.2.8c-4.8-.6-8.7-3.7-9.5-8.6h27.1s.1-3,.1-4.9C507.6,22.5,500.8,15,489.5,15Zm-9.2,15.9c.3-4.7,3.3-8.7,9.1-8.7s8.3,4.7,8.5,8.7Z"/><path class="cls-1" d="M198.4,15a28.5,28.5,0,0,0-14.3,3.9h0v8.2l3-2h0a19.3,19.3,0,0,1,10.5-3c5.1,0,8.2,2.2,8.2,6.9v1l-8.8.6c-7.6.5-15.1,3.5-15.1,11.1s5.8,11.6,12.9,11.6c5.5,0,9.7-2.4,11.3-5.1v4.3h9.3V31.4C215.4,20.1,209.7,15,198.4,15Zm7.4,27.7a9.9,9.9,0,0,1-7.9,4c-4,0-6.4-2.1-6.4-5.3s2.5-4.8,7.7-5.1l6.6-.4Z"/><path class="cls-1" d="M255.5,15.7H234.3V5.3h-9.6V15.8h-5.5v7.5h5.5v17c0,9.6,3.1,13,10.6,13a25.5,25.5,0,0,0,7.5-1.2l-.6-7.6a9.1,9.1,0,0,1-3.5.7c-3.4,0-4.4-1.4-4.4-7V23.3h16.4V53.3h9.7V20.5a4.6,4.6,0,0,0-1.6-3.5A4.5,4.5,0,0,0,255.5,15.7Z"/><path class="cls-1" d="M255.5.2c-3.4,0-5.8,2.2-5.8,5.4s2.4,5.3,5.8,5.3,5.9-2.2,5.9-5.3S258.9.2,255.5.2Z"/><path class="cls-1" d="M297.1,15.7a4.5,4.5,0,0,0-4.2,2.9L284,42.2l-9.9-26.5H264l15.1,36.8h9.5l12.6-30.7A4.4,4.4,0,0,0,297.1,15.7Z"/><path class="cls-1" d="M401.6,15c-11.3,0-20,7.6-20,19.2s8.7,19.1,20,19.1,19.9-7.5,19.9-19.1S412.9,15,401.6,15Zm0,30.2c-6.4,0-9.9-4.9-9.9-11.2s3.5-11.2,9.9-11.2,9.9,4.9,9.9,11.2S407.8,45.2,401.6,45.2Z"/><path class="cls-1" d="M460.8,0A4.8,4.8,0,0,0,456,4.8V20.7h-.1c-2.6-3.9-6.8-5.7-11.7-5.7-11.2,0-18.1,8.5-18.1,18.9s6.6,19.3,17.4,19.3c5.1,0,9.7-1.9,12.6-6.6h.2v5.8h9.2V4.8A4.9,4.9,0,0,0,460.8,0ZM446.2,45.3c-6.3,0-10.2-5-10.2-11.4s3.6-11.5,9.9-11.5,10.3,5.4,10.3,11.5S452.1,45.3,446.2,45.3Z"/><path class="cls-1" d="M518.6,41.9c-3.7,0-6.2,2.1-6.2,5.7s2.5,5.6,6.2,5.6,6-2.1,6-5.6S522.1,41.9,518.6,41.9Z"/><path class="cls-1" d="M565.9,15c-11.3,0-20,7.6-20,19.2s8.7,19,20,19,19.9-7.4,19.9-19S577.1,15,565.9,15Zm0,30.2c-6.4,0-9.9-5-9.9-11.3s3.5-11.1,9.9-11.1,9.9,4.8,9.9,11.1S572.1,45.2,565.9,45.2Z"/><path class="cls-1" d="M536.3.2c-3.4,0-5.8,2.3-5.8,5.4s2.4,5.4,5.8,5.4,5.9-2.2,5.9-5.4S539.7.2,536.3.2Z"/><path class="cls-1" d="M541.1,20.7a4.9,4.9,0,0,0-6.7-4.5,4.8,4.8,0,0,0-3.1,4.6V53.3h9.9V28.2h0Z"/><path class="cls-1" d="M131.9,15.1c-11.1-.1-15.9,6.3-15.8,14.7H116V53.3h8.9V31c0-3.9,1.8-7.9,6.8-7.5a7,7,0,0,1,4.1,1.6l4.9-7.4A16.2,16.2,0,0,0,131.9,15.1Z"/><path class="cls-1" d="M79.5,34.4c0,12,9.3,18.9,19.3,18.9,5.6,0,9.2-1.4,11.4-2.7V41.4a13.7,13.7,0,0,1-9.6,3.7c-6.3,0-10.9-4.4-10.9-11.2s4.6-10.8,10.4-10.8A14.5,14.5,0,0,1,110.2,27h0V17.7C108.1,16.4,104.5,15,99,15,89.1,15,79.5,22.3,79.5,34.4Z"/><path class="cls-1" d="M368,23.1A14.1,14.1,0,0,1,378.1,27V17.6c-2.1-1.3-5.7-2.6-11.2-2.6-9.9,0-19.5,7.3-19.5,19.4s9.3,18.9,19.3,18.9c5.6,0,9.2-1.4,11.4-2.7V41.4a13.7,13.7,0,0,1-9.6,3.7c-6.3,0-10.9-4.4-10.9-11.2S362.2,23.1,368,23.1Z"/><polygon class="cls-1" points="48.8 5.4 0 24.6 0 39.1 0 39.1 0 39 48.8 19.8 48.8 5.4"/><path class="cls-1" d="M27.1,35.2a6.7,6.7,0,0,0-9.2,6.2h0a6.8,6.8,0,0,0,4.2,6.3L48.8,58.1V43.7Z"/></svg>