<svg id="Layer_1" data-name="Layer 1" xmlns="http://www.w3.org/2000/svg" xmlns:xlink="http://www.w3.org/1999/xlink" viewBox="0 0 348.2 434.5"><defs><style>.cls-1,.cls-2{fill:none;}.cls-2{clip-rule:evenodd;}.cls-3{fill:url(#linear-gradient);}.cls-4{fill:url(#linear-gradient-2);}.cls-5{fill:#272626;}.cls-6{fill:#3a3a39;}.cls-7{clip-path:url(#clip-path);}.cls-8{clip-path:url(#clip-path-2);}.cls-9{fill:#171717;}.cls-10{clip-path:url(#clip-path-3);}.cls-11{clip-path:url(#clip-path-5);}.cls-12{clip-path:url(#clip-path-7);}.cls-13{clip-path:url(#clip-path-9);}.cls-14{clip-path:url(#clip-path-11);}.cls-15{clip-path:url(#clip-path-13);}.cls-16{clip-path:url(#clip-path-15);}.cls-17{clip-path:url(#clip-path-17);}.cls-18{clip-path:url(#clip-path-19);}.cls-19{clip-path:url(#clip-path-21);}.cls-20{clip-path:url(#clip-path-22);}.cls-21{clip-path:url(#clip-path-23);}.cls-22{clip-path:url(#clip-path-25);}.cls-23{clip-path:url(#clip-path-27);}.cls-24{clip-path:url(#clip-path-29);}.cls-25{clip-path:url(#clip-path-31);}.cls-26{clip-path:url(#clip-path-33);}.cls-27{clip-path:url(#clip-path-35);}.cls-28{clip-path:url(#clip-path-37);}.cls-29{clip-path:url(#clip-path-39);}.cls-30{clip-path:url(#clip-path-40);}.cls-31{clip-path:url(#clip-path-41);}.cls-32{clip-path:url(#clip-path-43);}.cls-33{clip-path:url(#clip-path-45);}.cls-34{clip-path:url(#clip-path-47);}.cls-35{clip-path:url(#clip-path-49);}.cls-36{clip-path:url(#clip-path-51);}.cls-37{clip-path:url(#clip-path-53);}.cls-38{clip-path:url(#clip-path-55);}.cls-39{clip-path:url(#clip-path-57);}.cls-40{clip-path:url(#clip-path-59);}.cls-41{clip-path:url(#clip-path-61);}.cls-42{clip-path:url(#clip-path-63);}.cls-43{clip-path:url(#clip-path-65);}.cls-44{clip-path:url(#clip-path-67);}.cls-45{clip-path:url(#clip-path-69);}.cls-46{clip-path:url(#clip-path-70);}.cls-47{clip-path:url(#clip-path-71);}.cls-48{clip-path:url(#clip-path-72);}.cls-49{clip-path:url(#clip-path-73);}.cls-50{clip-path:url(#clip-path-74);}.cls-51{clip-path:url(#clip-path-75);}.cls-52{clip-path:url(#clip-path-76);}.cls-53{clip-path:url(#clip-path-77);}.cls-54{clip-path:url(#clip-path-78);}.cls-55{clip-path:url(#clip-path-79);}.cls-56{clip-path:url(#clip-path-80);}.cls-57{clip-path:url(#clip-path-81);}.cls-58{clip-path:url(#clip-path-82);}.cls-59{opacity:0.2;}.cls-60{fill:#c7c6c5;}.cls-61{fill:url(#linear-gradient-3);}.cls-62{fill:url(#linear-gradient-4);}.cls-63{fill:url(#linear-gradient-5);}</style><linearGradient id="linear-gradient" y1="206.66" x2="348.23" y2="206.66" gradientUnits="userSpaceOnUse"><stop offset="0" stop-color="#f4f4f4"/><stop offset="1" stop-color="#e0e1e0"/></linearGradient><linearGradient id="linear-gradient-2" x1="295.07" y1="387.89" x2="216.52" y2="229.4" gradientUnits="userSpaceOnUse"><stop offset="0.21" stop-color="#c7c6c5" stop-opacity="0"/><stop offset="0.33" stop-color="#c5c4c3" stop-opacity="0.03"/><stop offset="0.45" stop-color="#c1c0bf" stop-opacity="0.11"/><stop offset="0.56" stop-color="#b9b8b7" stop-opacity="0.25"/><stop offset="0.68" stop-color="#aeadac" stop-opacity="0.44"/><stop offset="0.79" stop-color="#a09f9f" stop-opacity="0.68"/><stop offset="0.9" stop-color="#8f8e8e" stop-opacity="0.98"/><stop offset="0.91" stop-color="#8e8d8d"/></linearGradient><clipPath id="clip-path" transform="translate(-27.2 -30.8)"><polygon class="cls-1" points="132.8 252.4 173.8 276.1 173.8 93.4 132.8 69.8 132.8 252.4"/></clipPath><clipPath id="clip-path-2" transform="translate(-27.2 -30.8)"><polygon class="cls-1" points="134.3 251.1 172.1 272.9 172.1 94.7 134.3 72.8 134.3 251.1"/></clipPath><clipPath id="clip-path-3" transform="translate(-27.2 -30.8)"><path class="cls-2" d="M138.9,247.7l31.4,18.2a.8.8,0,0,1,.4.7v2.2c0,.3-.2.5-.4.4L138.9,251a.8.8,0,0,1-.4-.7v-2.2C138.5,247.8,138.7,247.6,138.9,247.7Z"/></clipPath><clipPath id="clip-path-5" transform="translate(-27.2 -30.8)"><path class="cls-2" d="M138.9,234.6l31.4,18.2a.8.8,0,0,1,.4.7v2.2c0,.3-.2.5-.4.3l-31.4-18.1a1,1,0,0,1-.4-.8v-2.2C138.5,234.6,138.7,234.5,138.9,234.6Z"/></clipPath><clipPath id="clip-path-7" transform="translate(-27.2 -30.8)"><path class="cls-2" d="M138.9,195.2l31.4,18.2a.8.8,0,0,1,.4.7v2.2c0,.3-.2.5-.4.4l-31.4-18.2a.8.8,0,0,1-.4-.7v-2.2C138.5,195.3,138.7,195.1,138.9,195.2Z"/></clipPath><clipPath id="clip-path-9" transform="translate(-27.2 -30.8)"><path class="cls-2" d="M138.9,155.9,170.3,174a1,1,0,0,1,.4.8v2.1c0,.3-.2.5-.4.4l-31.4-18.2a.8.8,0,0,1-.4-.7v-2.2C138.5,155.9,138.7,155.7,138.9,155.9Z"/></clipPath><clipPath id="clip-path-11" transform="translate(-27.2 -30.8)"><path class="cls-2" d="M138.9,177.7l31.4,18.2a.8.8,0,0,1,.4.7v2.2c0,.3-.2.5-.4.4L138.9,181a.8.8,0,0,1-.4-.7v-2.2C138.5,177.8,138.7,177.6,138.9,177.7Z"/></clipPath><clipPath id="clip-path-13" transform="translate(-27.2 -30.8)"><path class="cls-2" d="M138.9,164.6l31.4,18.2a.8.8,0,0,1,.4.7v2.2c0,.3-.2.5-.4.3l-31.4-18.1a1,1,0,0,1-.4-.8v-2.2C138.5,164.6,138.7,164.5,138.9,164.6Z"/></clipPath><clipPath id="clip-path-15" transform="translate(-27.2 -30.8)"><path class="cls-2" d="M138.9,212.7l31.4,18.2a.8.8,0,0,1,.4.7v2.2c0,.3-.2.5-.4.4L138.9,216a.8.8,0,0,1-.4-.7v-2.2C138.5,212.8,138.7,212.6,138.9,212.7Z"/></clipPath><clipPath id="clip-path-17" transform="translate(-27.2 -30.8)"><path class="cls-2" d="M138.9,190.9,170.3,209a1,1,0,0,1,.4.8v2.1c0,.4-.2.5-.4.4l-31.4-18.2a.8.8,0,0,1-.4-.7v-2.2C138.5,190.9,138.7,190.7,138.9,190.9Z"/></clipPath><clipPath id="clip-path-19" transform="translate(-27.2 -30.8)"><path class="cls-2" d="M138.9,151.5l31.4,18.1a1,1,0,0,1,.4.8v2.2c0,.3-.2.4-.4.3l-31.4-18.1a1.2,1.2,0,0,1-.4-.8v-2.2C138.5,151.5,138.7,151.4,138.9,151.5Z"/></clipPath><clipPath id="clip-path-21" transform="translate(-27.2 -30.8)"><path class="cls-2" d="M138.9,147.1l31.4,18.2a.8.8,0,0,1,.4.7v2.2c0,.3-.2.5-.4.3l-31.4-18.1a1,1,0,0,1-.4-.8v-2.1C138.5,147.2,138.7,147,138.9,147.1Z"/></clipPath><clipPath id="clip-path-22" transform="translate(-27.2 -30.8)"><polygon class="cls-1" points="132.8 248.1 173.8 271.7 173.8 89.1 132.8 65.4 132.8 248.1"/></clipPath><clipPath id="clip-path-23" transform="translate(-27.2 -30.8)"><path class="cls-2" d="M138.9,173.4l31.4,18.1a1,1,0,0,1,.4.8v2.1c0,.3-.2.5-.4.4l-31.4-18.2a.8.8,0,0,1-.4-.7v-2.2C138.5,173.4,138.7,173.2,138.9,173.4Z"/></clipPath><clipPath id="clip-path-25" transform="translate(-27.2 -30.8)"><path class="cls-2" d="M138.9,160.2l31.4,18.2a.8.8,0,0,1,.4.7v2.2c0,.3-.2.5-.4.4l-31.4-18.2a.8.8,0,0,1-.4-.7v-2.2C138.5,160.3,138.7,160.1,138.9,160.2Z"/></clipPath><clipPath id="clip-path-27" transform="translate(-27.2 -30.8)"><path class="cls-2" d="M138.9,208.4l31.4,18.1a1,1,0,0,1,.4.8v2.1c0,.4-.2.5-.4.4l-31.4-18.2a.8.8,0,0,1-.4-.7v-2.2C138.5,208.4,138.7,208.2,138.9,208.4Z"/></clipPath><clipPath id="clip-path-29" transform="translate(-27.2 -30.8)"><path class="cls-2" d="M138.9,186.5l31.4,18.1a1,1,0,0,1,.4.8v2.2c0,.3-.2.4-.4.3l-31.4-18.1a1.2,1.2,0,0,1-.4-.8v-2.2C138.5,186.5,138.7,186.4,138.9,186.5Z"/></clipPath><clipPath id="clip-path-31" transform="translate(-27.2 -30.8)"><path class="cls-2" d="M138.9,169l31.4,18.1a1,1,0,0,1,.4.8v2.2c0,.3-.2.4-.4.3l-31.4-18.1a1.2,1.2,0,0,1-.4-.8v-2.2C138.5,169,138.7,168.9,138.9,169Z"/></clipPath><clipPath id="clip-path-33" transform="translate(-27.2 -30.8)"><path class="cls-2" d="M138.9,204l31.4,18.1a1,1,0,0,1,.4.8v2.2c0,.3-.2.4-.4.3l-31.4-18.1a1.2,1.2,0,0,1-.4-.8v-2.2C138.5,204,138.7,203.9,138.9,204Z"/></clipPath><clipPath id="clip-path-35" transform="translate(-27.2 -30.8)"><path class="cls-2" d="M138.9,182.1l31.4,18.2a.8.8,0,0,1,.4.7v2.2c0,.3-.2.5-.4.3l-31.4-18.1a1,1,0,0,1-.4-.8v-2.2C138.5,182.1,138.7,182,138.9,182.1Z"/></clipPath><clipPath id="clip-path-37" transform="translate(-27.2 -30.8)"><path class="cls-2" d="M138.9,199.6l31.4,18.2a.8.8,0,0,1,.4.7v2.2c0,.3-.2.5-.4.3l-31.4-18.1a1,1,0,0,1-.4-.8v-2.2C138.5,199.6,138.7,199.5,138.9,199.6Z"/></clipPath><clipPath id="clip-path-39" transform="translate(-27.2 -30.8)"><path class="cls-2" d="M138.9,142.7l31.4,18.2a.8.8,0,0,1,.4.7v2.2c0,.3-.2.5-.4.4L138.9,146a.8.8,0,0,1-.4-.7v-2.2C138.5,142.8,138.7,142.6,138.9,142.7Z"/></clipPath><clipPath id="clip-path-40" transform="translate(-27.2 -30.8)"><polygon class="cls-1" points="132.8 256.8 173.8 280.5 173.8 97.8 132.8 74.2 132.8 256.8"/></clipPath><clipPath id="clip-path-41" transform="translate(-27.2 -30.8)"><path class="cls-2" d="M138.9,125.2l31.4,18.2a.8.8,0,0,1,.4.7v2.2c0,.3-.2.5-.4.4l-31.4-18.2a.9.9,0,0,1-.4-.8v-2.1C138.5,125.3,138.7,125.1,138.9,125.2Z"/></clipPath><clipPath id="clip-path-43" transform="translate(-27.2 -30.8)"><path class="cls-2" d="M138.9,107.7l31.4,18.2a.8.8,0,0,1,.4.7v2.2c0,.3-.2.5-.4.4L138.9,111a.9.9,0,0,1-.4-.8v-2.1C138.5,107.8,138.7,107.6,138.9,107.7Z"/></clipPath><clipPath id="clip-path-45" transform="translate(-27.2 -30.8)"><path class="cls-2" d="M138.9,116.5l31.4,18.1a1,1,0,0,1,.4.8v2.2c0,.3-.2.4-.4.3l-31.4-18.1a1.2,1.2,0,0,1-.4-.8v-2.2C138.5,116.5,138.7,116.4,138.9,116.5Z"/></clipPath><clipPath id="clip-path-47" transform="translate(-27.2 -30.8)"><path class="cls-2" d="M138.9,120.9,170.3,139a1,1,0,0,1,.4.8v2.1c0,.3-.2.5-.4.4l-31.4-18.2a.8.8,0,0,1-.4-.7v-2.2C138.5,120.9,138.7,120.7,138.9,120.9Z"/></clipPath><clipPath id="clip-path-49" transform="translate(-27.2 -30.8)"><path class="cls-2" d="M138.9,103.4l31.6,18.2c.2.1.3.5.3.8v2.2q0,.5-.3.3l-31.6-18.3a.8.8,0,0,1-.4-.7v-2.2C138.5,103.4,138.7,103.2,138.9,103.4Z"/></clipPath><clipPath id="clip-path-51" transform="translate(-27.2 -30.8)"><path class="cls-2" d="M138.9,99l31.4,18.1a1,1,0,0,1,.4.8v2.2c0,.3-.2.4-.4.3l-31.4-18.1a1.2,1.2,0,0,1-.4-.8V99.3C138.5,99,138.7,98.9,138.9,99Z"/></clipPath><clipPath id="clip-path-53" transform="translate(-27.2 -30.8)"><path class="cls-2" d="M138.9,94.6l31.4,18.2a.8.8,0,0,1,.4.7v2.2c0,.3-.2.4-.4.3L138.9,97.9a1,1,0,0,1-.4-.8V94.9C138.5,94.6,138.7,94.5,138.9,94.6Z"/></clipPath><clipPath id="clip-path-55" transform="translate(-27.2 -30.8)"><path class="cls-2" d="M138.9,90.2l31.4,18.2a.8.8,0,0,1,.4.7v2.2c0,.3-.2.5-.4.4L138.9,93.5a.9.9,0,0,1-.4-.8V90.6C138.5,90.3,138.7,90.1,138.9,90.2Z"/></clipPath><clipPath id="clip-path-57" transform="translate(-27.2 -30.8)"><path class="cls-2" d="M138.9,85.9,170.3,104a1,1,0,0,1,.4.8v2.1c0,.3-.2.5-.4.4L138.9,89.1a.8.8,0,0,1-.4-.7V86.2C138.5,85.9,138.7,85.7,138.9,85.9Z"/></clipPath><clipPath id="clip-path-59" transform="translate(-27.2 -30.8)"><path class="cls-2" d="M138.9,81.5l31.4,18.1a1,1,0,0,1,.4.8v2.2c0,.3-.2.4-.4.3L138.9,84.8a1.2,1.2,0,0,1-.4-.8V81.8C138.5,81.5,138.7,81.4,138.9,81.5Z"/></clipPath><clipPath id="clip-path-61" transform="translate(-27.2 -30.8)"><path class="cls-2" d="M138.9,77.1l31.4,18.2a.8.8,0,0,1,.4.7v2.2c0,.3-.2.4-.4.3L138.9,80.4a1,1,0,0,1-.4-.8V77.4C138.5,77.1,138.7,77,138.9,77.1Z"/></clipPath><clipPath id="clip-path-63" transform="translate(-27.2 -30.8)"><path class="cls-2" d="M138.9,112.1l31.4,18.2a.8.8,0,0,1,.4.7v2.2c0,.3-.2.4-.4.3l-31.4-18.1a1,1,0,0,1-.4-.8v-2.2C138.5,112.1,138.7,112,138.9,112.1Z"/></clipPath><clipPath id="clip-path-65" transform="translate(-27.2 -30.8)"><path class="cls-2" d="M138.9,217.1l31.4,18.2a.8.8,0,0,1,.4.7v2.2c0,.3-.2.5-.4.3l-31.4-18.1a1,1,0,0,1-.4-.8v-2.2C138.5,217.1,138.7,217,138.9,217.1Z"/></clipPath><clipPath id="clip-path-67" transform="translate(-27.2 -30.8)"><path class="cls-2" d="M138.9,221.5l31.4,18.1a1,1,0,0,1,.4.8v2.2c0,.3-.2.4-.4.3l-31.4-18.1a1.2,1.2,0,0,1-.4-.8v-2.2C138.5,221.5,138.7,221.4,138.9,221.5Z"/></clipPath><clipPath id="clip-path-69" transform="translate(-27.2 -30.8)"><path class="cls-2" d="M138.9,129.5l31.4,18.2a.8.8,0,0,1,.4.7v2.2c0,.3-.2.5-.4.4l-31.4-18.2a.8.8,0,0,1-.4-.7v-2.2C138.5,129.6,138.7,129.4,138.9,129.5Z"/></clipPath><clipPath id="clip-path-70" transform="translate(-27.2 -30.8)"><polygon class="cls-1" points="132.8 256.8 173.8 280.4 173.8 97.7 132.8 74.1 132.8 256.8"/></clipPath><clipPath id="clip-path-71" transform="translate(-27.2 -30.8)"><path class="cls-2" d="M138.9,133.9l31.4,18.2a.8.8,0,0,1,.4.7V155c0,.3-.2.5-.4.4l-31.4-18.2a.9.9,0,0,1-.4-.8v-2.1C138.5,134,138.7,133.8,138.9,133.9Z"/></clipPath><clipPath id="clip-path-72" transform="translate(-27.2 -30.8)"><polygon class="cls-1" points="132.8 261.1 173.8 284.8 173.8 102.1 132.8 78.5 132.8 261.1"/></clipPath><clipPath id="clip-path-73" transform="translate(-27.2 -30.8)"><path class="cls-2" d="M138.9,138.3l31.4,18.1a1,1,0,0,1,.4.8v2.1c0,.3-.2.5-.4.4l-31.4-18.2a.8.8,0,0,1-.4-.7v-2.2C138.5,138.3,138.7,138.1,138.9,138.3Z"/></clipPath><clipPath id="clip-path-74" transform="translate(-27.2 -30.8)"><polygon class="cls-1" points="132.8 265.5 173.8 289.1 173.8 106.5 132.8 82.8 132.8 265.5"/></clipPath><clipPath id="clip-path-75" transform="translate(-27.2 -30.8)"><path class="cls-2" d="M138.9,225.8,170.3,244a.8.8,0,0,1,.4.7v2.2c0,.3-.2.5-.4.4l-31.4-18.2a1,1,0,0,1-.4-.8v-2.1C138.5,225.9,138.7,225.7,138.9,225.8Z"/></clipPath><clipPath id="clip-path-76" transform="translate(-27.2 -30.8)"><polygon class="cls-1" points="132.8 256.8 173.8 280.4 173.8 97.8 132.8 74.1 132.8 256.8"/></clipPath><clipPath id="clip-path-77" transform="translate(-27.2 -30.8)"><path class="cls-2" d="M138.9,230.3l31.4,18.1a1,1,0,0,1,.4.8v2.2c0,.3-.2.4-.4.3l-31.4-18.2a.8.8,0,0,1-.4-.7v-2.2C138.5,230.3,138.7,230.1,138.9,230.3Z"/></clipPath><clipPath id="clip-path-78" transform="translate(-27.2 -30.8)"><polygon class="cls-1" points="132.8 261.2 173.8 284.9 173.8 102.2 132.8 78.6 132.8 261.2"/></clipPath><clipPath id="clip-path-79" transform="translate(-27.2 -30.8)"><path class="cls-2" d="M138.9,243.3l31.4,18.2a.8.8,0,0,1,.4.7v2.2c0,.3-.2.5-.4.3l-31.4-18.1a1,1,0,0,1-.4-.8v-2.1C138.5,243.3,138.7,243.2,138.9,243.3Z"/></clipPath><clipPath id="clip-path-80" transform="translate(-27.2 -30.8)"><polygon class="cls-1" points="132.8 261.2 173.8 284.8 173.8 102.1 132.8 78.5 132.8 261.2"/></clipPath><clipPath id="clip-path-81" transform="translate(-27.2 -30.8)"><path class="cls-2" d="M138.9,239l31.4,18.1a1,1,0,0,1,.4.8v2.2c0,.3-.2.4-.4.3l-31.4-18.1a1.2,1.2,0,0,1-.4-.8v-2.2C138.5,239,138.7,238.9,138.9,239Z"/></clipPath><clipPath id="clip-path-82" transform="translate(-27.2 -30.8)"><polygon class="cls-1" points="132.8 269.9 173.8 293.6 173.8 110.9 132.8 87.3 132.8 269.9"/></clipPath><linearGradient id="linear-gradient-3" x1="190.18" y1="40.35" x2="127.12" y2="21.43" gradientUnits="userSpaceOnUse"><stop offset="0" stop-color="#272626"/><stop offset="1" stop-color="#535353"/></linearGradient><linearGradient id="linear-gradient-4" x1="-5993.77" y1="426.53" x2="-6077.12" y2="270.08" gradientTransform="matrix(-1, 0, 0, 1, -5946.48, -30.75)" gradientUnits="userSpaceOnUse"><stop offset="0.28" stop-color="#c7c6c5" stop-opacity="0"/><stop offset="0.43" stop-color="#c6c5c4" stop-opacity="0.02"/><stop offset="0.51" stop-color="#c3c2c1" stop-opacity="0.07"/><stop offset="0.58" stop-color="#bebdbc" stop-opacity="0.17"/><stop offset="0.63" stop-color="#b6b5b4" stop-opacity="0.3"/><stop offset="0.68" stop-color="#acabaa" stop-opacity="0.48"/><stop offset="0.73" stop-color="#a09f9e" stop-opacity="0.69"/><stop offset="0.77" stop-color="#919090" stop-opacity="0.94"/><stop offset="0.78" stop-color="#8e8d8d"/></linearGradient><linearGradient id="linear-gradient-5" x1="241.29" y1="266.58" x2="133.15" y2="167.94" gradientUnits="userSpaceOnUse"><stop offset="0" stop-color="#171717" stop-opacity="0.1"/><stop offset="1" stop-opacity="0.9"/></linearGradient></defs><polyline class="cls-3" points="0 206.7 173.5 105.8 348.2 206.7 174.7 307.5"/><polyline class="cls-4" points="174.7 307.5 348.2 206.7 348.2 332.7 174.7 433.5"/><polygon class="cls-5" points="105.6 39 173.7 0 214.5 23.2 146.6 62.7 105.6 39"/><polygon class="cls-6" points="214.5 23.2 215.7 202 146.6 245.3 146.6 62.7 214.5 23.2"/><g class="cls-7"><polygon class="cls-5" points="104.7 37.1 147.5 61.8 147.5 247.2 104.7 222.5 104.7 37.1"/></g><g class="cls-8"><polygon class="cls-9" points="106.2 40.2 145.8 63.1 145.8 244.1 106.2 221.2 106.2 40.2"/></g><g class="cls-10"><g class="cls-7"><polygon class="cls-5" points="110.4 214.9 144.4 234.5 144.4 240.5 110.4 220.9 110.4 214.9"/></g></g><g class="cls-11"><g class="cls-7"><polygon class="cls-5" points="110.4 201.7 144.4 221.4 144.4 227.4 110.4 207.8 110.4 201.7"/></g></g><g class="cls-12"><g class="cls-7"><polygon class="cls-5" points="110.4 162.4 144.4 182 144.4 188 110.4 168.4 110.4 162.4"/></g></g><g class="cls-13"><g class="cls-7"><polygon class="cls-5" points="110.4 123 144.4 142.6 144.4 148.6 110.4 129 110.4 123"/></g></g><g class="cls-14"><g class="cls-7"><polygon class="cls-5" points="110.4 144.9 144.4 164.5 144.4 170.5 110.4 150.9 110.4 144.9"/></g></g><g class="cls-15"><g class="cls-7"><polygon class="cls-5" points="110.4 131.7 144.4 151.4 144.4 157.4 110.4 137.8 110.4 131.7"/></g></g><g class="cls-16"><g class="cls-7"><polygon class="cls-5" points="110.4 179.9 144.4 199.5 144.4 205.5 110.4 185.9 110.4 179.9"/></g></g><g class="cls-17"><g class="cls-7"><polygon class="cls-5" points="110.4 158 144.4 177.6 144.4 183.6 110.4 164 110.4 158"/></g></g><g class="cls-18"><g class="cls-7"><polygon class="cls-5" points="110.4 118.6 144.4 138.2 144.4 144.3 110.4 124.6 110.4 118.6"/></g></g><g class="cls-19"><g class="cls-20"><polygon class="cls-5" points="110.4 114.3 144.4 133.9 144.4 139.9 110.4 120.3 110.4 114.3"/></g></g><g class="cls-21"><g class="cls-7"><polygon class="cls-5" points="110.4 140.5 144.4 160.1 144.4 166.1 110.4 146.5 110.4 140.5"/></g></g><g class="cls-22"><g class="cls-7"><polygon class="cls-5" points="110.4 127.4 144.4 147 144.4 153 110.4 133.4 110.4 127.4"/></g></g><g class="cls-23"><g class="cls-7"><polygon class="cls-5" points="110.4 175.5 144.4 195.1 144.4 201.1 110.4 181.5 110.4 175.5"/></g></g><g class="cls-24"><g class="cls-7"><polygon class="cls-5" points="110.4 153.6 144.4 173.2 144.4 179.3 110.4 159.6 110.4 153.6"/></g></g><g class="cls-25"><g class="cls-7"><polygon class="cls-5" points="110.4 136.1 144.4 155.7 144.4 161.8 110.4 142.1 110.4 136.1"/></g></g><g class="cls-26"><g class="cls-7"><polygon class="cls-5" points="110.4 171.1 144.4 190.7 144.4 196.8 110.4 177.1 110.4 171.1"/></g></g><g class="cls-27"><g class="cls-7"><polygon class="cls-5" points="110.4 149.2 144.4 168.9 144.4 174.9 110.4 155.3 110.4 149.2"/></g></g><g class="cls-28"><g class="cls-7"><polygon class="cls-5" points="110.4 166.7 144.4 186.4 144.4 192.4 110.4 172.8 110.4 166.7"/></g></g><g class="cls-29"><g class="cls-30"><polygon class="cls-5" points="110.4 109.9 144.4 129.5 144.4 135.5 110.4 115.9 110.4 109.9"/></g></g><g class="cls-31"><g class="cls-7"><polygon class="cls-5" points="110.4 92.4 144.4 112 144.4 118 110.4 98.4 110.4 92.4"/></g></g><g class="cls-32"><g class="cls-7"><polygon class="cls-5" points="110.4 74.9 144.4 94.5 144.4 100.5 110.4 80.9 110.4 74.9"/></g></g><g class="cls-33"><g class="cls-7"><polygon class="cls-5" points="110.4 83.6 144.4 103.2 144.4 109.3 110.4 89.6 110.4 83.6"/></g></g><g class="cls-34"><g class="cls-7"><polygon class="cls-5" points="110.4 88 144.4 107.6 144.4 113.6 110.4 94 110.4 88"/></g></g><g class="cls-35"><g class="cls-7"><polygon class="cls-5" points="110.4 70.5 144.6 90.2 144.6 96.2 110.4 76.5 110.4 70.5"/></g></g><g class="cls-36"><g class="cls-7"><polygon class="cls-5" points="110.4 66.1 144.4 85.7 144.4 91.8 110.4 72.1 110.4 66.1"/></g></g><g class="cls-37"><g class="cls-7"><polygon class="cls-5" points="110.4 61.7 144.4 81.4 144.4 87.4 110.4 67.8 110.4 61.7"/></g></g><g class="cls-38"><g class="cls-7"><polygon class="cls-5" points="110.4 57.4 144.4 77 144.4 83 110.4 63.4 110.4 57.4"/></g></g><g class="cls-39"><g class="cls-7"><polygon class="cls-5" points="110.4 53 144.4 72.6 144.4 78.6 110.4 59 110.4 53"/></g></g><g class="cls-40"><g class="cls-7"><polygon class="cls-5" points="110.4 48.6 144.4 68.2 144.4 74.3 110.4 54.6 110.4 48.6"/></g></g><g class="cls-41"><g class="cls-7"><polygon class="cls-5" points="110.4 44.2 144.4 63.9 144.4 69.9 110.4 50.3 110.4 44.2"/></g></g><g class="cls-42"><g class="cls-7"><polygon class="cls-5" points="110.4 79.2 144.4 98.9 144.4 104.9 110.4 85.3 110.4 79.2"/></g></g><g class="cls-43"><g class="cls-7"><polygon class="cls-5" points="110.4 184.2 144.4 203.9 144.4 209.9 110.4 190.3 110.4 184.2"/></g></g><g class="cls-44"><g class="cls-7"><polygon class="cls-5" points="110.4 188.6 144.4 208.2 144.4 214.3 110.4 194.6 110.4 188.6"/></g></g><g class="cls-45"><g class="cls-46"><polygon class="cls-5" points="110.4 96.7 144.4 116.3 144.4 122.3 110.4 102.7 110.4 96.7"/></g></g><g class="cls-47"><g class="cls-48"><polygon class="cls-5" points="110.4 101.1 144.4 120.7 144.4 126.7 110.4 107.1 110.4 101.1"/></g></g><g class="cls-49"><g class="cls-50"><polygon class="cls-5" points="110.4 105.4 144.4 125 144.4 131 110.4 111.4 110.4 105.4"/></g></g><g class="cls-51"><g class="cls-52"><polygon class="cls-5" points="110.4 193 144.4 212.6 144.4 218.6 110.4 199 110.4 193"/></g></g><g class="cls-53"><g class="cls-54"><polygon class="cls-5" points="110.4 197.4 144.4 217 144.4 223 110.4 203.4 110.4 197.4"/></g></g><g class="cls-55"><g class="cls-56"><polygon class="cls-5" points="110.4 210.5 144.4 230.1 144.4 236.1 110.4 216.5 110.4 210.5"/></g></g><g class="cls-57"><g class="cls-58"><polygon class="cls-5" points="110.4 206.1 144.4 225.7 144.4 231.8 110.4 212.1 110.4 206.1"/></g></g><g id="IBM_KO" data-name="IBM KO" class="cls-59"><polygon class="cls-60" points="175 203.5 175 225.5 172.5 226.9 172.5 205 175 203.5"/><polygon class="cls-60" points="180.2 200.5 180.2 222.5 177.8 223.9 177.7 202 180.2 200.5"/><polygon class="cls-60" points="185.4 203.8 185.4 213.2 182.9 214.6 182.9 205.2 185.4 203.8"/><polygon class="cls-60" points="190.6 200.8 190.6 210.2 188.1 211.6 188.1 202.2 190.6 200.8"/><polygon class="cls-60" points="195.8 197.8 195.8 207.2 193.3 208.6 193.3 199.2 195.8 197.8"/><polygon class="cls-60" points="201 194.8 201 204.2 198.5 205.6 198.5 196.2 201 194.8"/><polygon class="cls-60" points="206.2 185.5 206.2 207.4 203.7 208.9 203.7 187 206.2 185.5"/><polygon class="cls-60" points="211.4 182.5 211.4 204.4 209 205.9 208.9 184 211.4 182.5"/><path class="cls-60" d="M207.3,193.4v34.8l-2.4,1.4V195.8A28.9,28.9,0,0,1,207.3,193.4Z" transform="translate(-27.2 -30.8)"/><polygon class="cls-60" points="185.3 178.8 185.3 188.1 182.9 189.6 182.8 180.2 185.3 178.8"/><path class="cls-60" d="M210.1,191.5a12.2,12.2,0,0,1,2.4-1v9.6l-2.5,1.5v-10Z" transform="translate(-27.2 -30.8)"/><path class="cls-60" d="M222.9,186.2v26.7l-2.4,1.4V190.2A21.9,21.9,0,0,1,222.9,186.2Z" transform="translate(-27.2 -30.8)"/><polygon class="cls-60" points="200.9 169.8 200.9 179.1 198.5 180.6 198.4 171.2 200.9 169.8"/><path class="cls-60" d="M228.1,181v10.1l-2.5,1.5V183Z" transform="translate(-27.2 -30.8)"/><path class="cls-60" d="M230.8,179.9a8.2,8.2,0,0,1,2.5-.6v33.9l-2.5,1.4Z" transform="translate(-27.2 -30.8)"/><path class="cls-60" d="M236,180.2c2,1.6,2.5,3.8,2.5,8.1v21.9l-2.5,1.4Z" transform="translate(-27.2 -30.8)"/><polygon class="cls-60" points="174.8 144 174.8 162.9 172.4 164.3 172.3 146.4 174.8 144"/><polygon class="cls-60" points="180 139 180 159.9 177.6 161.3 177.5 141.4 180 139"/><polygon class="cls-60" points="185.2 134 185.2 150.6 182.8 152 182.7 136.4 185.2 134"/><polygon class="cls-60" points="190.4 129.1 190.4 137.3 188.2 139.5 190.4 138.2 190.4 147.6 188 149 187.9 131.4 190.4 129.1"/><polygon class="cls-60" points="190.3 110 190.4 119.4 188.2 120.7 190.4 120.3 190.4 128.5 187.9 129 187.9 111.5 190.3 110"/><polygon class="cls-60" points="195.6 135.2 195.6 144.6 193.2 146 193.1 136.6 195.6 135.2"/><polygon class="cls-60" points="200.8 132.2 200.8 141.6 198.4 143 198.3 133.6 200.8 132.2"/><polygon class="cls-60" points="206 129.2 206.1 144.8 203.6 146.3 203.5 130.6 206 129.2"/><polygon class="cls-60" points="211.2 126.2 211.3 141.8 208.8 143.3 208.7 127.6 211.2 126.2"/><polygon class="cls-60" points="174.7 112.8 174.8 131.6 172.3 132.1 172.2 114.2 174.7 112.8"/><polygon class="cls-60" points="179.9 109.8 180 130.6 177.5 131.1 177.4 111.2 179.9 109.8"/><polygon class="cls-60" points="185.1 113 185.2 129.6 182.7 130.1 182.6 114.5 185.1 113"/><polygon class="cls-60" points="195.5 107 195.6 116.4 193.1 117.8 193 108.5 195.5 107"/><polygon class="cls-60" points="200.7 104 200.8 113.4 198.3 114.8 198.2 105.5 200.7 104"/><polygon class="cls-60" points="205.9 94.8 206 110.4 203.5 111.8 203.4 96.2 205.9 94.8"/><polygon class="cls-60" points="211.1 91.8 211.2 107.4 208.7 108.8 208.6 93.2 211.1 91.8"/><polygon class="cls-60" points="193.1 119.8 195.6 119.3 195.6 132.3 193.1 134.7 193.1 119.8"/><polygon class="cls-60" points="198.3 118.8 200.8 118.3 200.8 127.3 198.3 129.7 198.3 118.8"/><polygon class="cls-60" points="203.5 117.8 206 117.3 206 122.3 203.5 124.7 203.5 117.8"/><polygon class="cls-60" points="208.7 116.8 211.2 116.4 211.2 117.2 208.7 119.6 208.7 116.8"/><path class="cls-60" d="M215.2,190.4a7.7,7.7,0,0,1,2.5,1.4v24.1l-2.4,1.4Z" transform="translate(-27.2 -30.8)"/><path class="cls-60" d="M202.1,199.8v31.4l-2.4,1.4V210.8C199.6,206.5,200,203.7,202.1,199.8Z" transform="translate(-27.2 -30.8)"/></g><polygon class="cls-5" points="160.4 43.3 160.4 236.6 161.4 236 161.4 42.7 160.4 43.3"/><polygon class="cls-5" points="179.5 32.2 179.5 224.7 180.5 224.1 180.5 31.7 179.5 32.2"/><polygon class="cls-5" points="197.5 21.9 197.5 213.4 198.5 212.8 198.5 21.4 197.5 21.9"/><polygon class="cls-61" points="105.6 39.3 173.7 0 214.5 23.2 146.6 62.7 105.6 39.3"/><polyline class="cls-62" points="174.7 307.5 0 206.7 0 332.9 174.7 434.5"/><polygon class="cls-63" points="146.6 245.3 213.9 284.8 286.4 242.6 215.7 202 146.6 245.3"/></svg>