<?xml version="1.0" encoding="UTF-8"?>
<svg
  id="Layer_1"
  width="300px"
  height="300px"
  viewBox="-9 0 85 65"
  version="1.1"
  xmlns="http://www.w3.org/2000/svg"
  xmlns:xlink="http://www.w3.org/1999/xlink">
    <!-- Generator: Sketch 50.2 (55047) - http://www.bohemiancoding.com/sketch -->
    <title>WEBSITE</title>
    <desc>Created with Sketch.</desc>
    <defs></defs>

    <style>


#Layer_1:hover .circle {animation: 1s hover infinite;}

@keyframes hover {
0% {fill: #FFF;}
100% {fill: #B8B8B8;}
}

.shadow {opacity: 0;}


.arrow {animation: 5s click infinite;}

@keyframes click {
0% {transform: translateX(0px) translateY(0px);}
20% {transform: translateX(-20px) translateY(-9px);}
30% {transform: translateX(-20px) translateY(-8px);}
45% {transform: translateX(2px) translateY(-9px);}
}

.orange {animation: 5s color1 infinite;}

@keyframes color1 {

30% {transform: translateX(0px) translateY(0px);}
45% {transform: translateX(-12px) translateY(14px);}
90% {transform: translateX(-12px) translateY(14px);}
}

.gray {animation: 5s move1 infinite;}

@keyframes move1 {
0% {transform: translateX(0px) translateY(0px);}
30% {transform: translateX(0px) translateY(0px);}
45% {transform: translateX(23px) translateY(0px);}
90% {transform: translateX(23px) translateY(0px);}
}

.blue {animation: 5s move2 infinite;}

@keyframes move2 {
0% {transform: translateX(0px) translateY(0px);}
30% {transform: translateX(0px) translateY(0px);}
45% {transform: translateX(-12px) translateY(-14px);}
90% {transform: translateX(-12px) translateY(-14px);}
}


<!--turn off shadow and bounce
.shadow {animation: 5s show infinite; transition-timing-function: ease;
    transform: translateX(-.5px) translateY(.5px);}

@keyframes show {
0% {opacity: 0;}
50% {opacity: 0;}
70% {opacity: 1;}
90% {opacity: 1;}
100% {opacity: 0;}
}


.lineshadow {animation: 5s hide infinite;}

@keyframes hide {
0% {opacity: 1;}
35% {opacity: 1;}
50% {opacity: 1;}
60% {opacity: 0;}
100% {opacity: 0;}
}


.website {animation: 5s bounce infinite; transition-timing-function: ease;}

@keyframes bounce {
0% {transform: translateX(0px) translateY(0px) scale(1.0); transform-origin: 50% 50%;}
45% {transform: translateX(0px) translateY(0px) scale(1.0); transform-origin: 50% 50%;}
50% {transform: translateX(0px) translateY(-4px) scale(1.05); transform-origin: 50% 50%;}
70% {transform: translateX(0px) translateY(0px) scale(1.0); transform-origin: 50% 50%;}
100% {transform:; transform-origin: 50% 50%;}
}
-->
    </style>

    <g id="Page-1" stroke="none" stroke-width="1" fill="none" fill-rule="evenodd">

            <circle class="circle" fill="#FFF" fill-rule="nonzero" cx="32.5" cy="32.2" r="32.2"></circle>
            <!--lineshadow
            <path class="lineshadow" d="M15.4,53.5 L52.4,53.5" id="Shape" stroke="#C8C8C8" stroke-width="3" stroke-linecap="round"></path>
-->
<g class="website">

            <!--big shadow
            <path class="shadow" d="M50.4,54.8 L14.5,54.8 C13.3,54.8 12.4,53.9 12.4,52.7 L12.4,16.9 C12.4,15.7 13.3,14.8 14.5,14.8 L50.3,14.8 C51.5,14.8 52.4,15.7 52.4,16.9 L52.4,52.7 C52.5,53.9 51.5,54.8 50.4,54.8 Z" id="Shape" stroke="#C8C8C8" fill="#C8C8C8" fill-rule="nonzero"></path>
-->


            <!--white fill-->
            <path d="M50.9,52.2 L16.9,52.2 C15.8,52.2 14.9,51.3 14.9,50.2 L14.9,16.2 C14.9,15.1 15.8,14.2 16.9,14.2 L50.9,14.2 C52,14.2 52.9,15.1 52.9,16.2 L52.9,50.2 C52.9,51.3 52,52.2 50.9,52.2 Z" id="Shape" stroke="#000000" stroke-width="2" fill="#FFFFFF" fill-rule="nonzero" stroke-linecap="round" stroke-linejoin="round"></path>

            <!--orange rec-->
            <rect class="orange" id="Rectangle-path" fill="#CF4520" fill-rule="nonzero" x="29.3" y="23.5" width="20.9" height="11.8"></rect>
            <!--blue rec-->
            <rect class="blue" id="Rectangle-path" fill="#3FA9F5" fill-rule="nonzero" x="29.3" y="37.4" width="20.9" height="12"></rect>

            <g id="Group" transform="translate(14.000000, 15.000000)">
                <g transform="translate(1.000000, 0.000000)" fill-rule="nonzero">
                    <rect id="Rectangle-path" fill="#3FA9F5" x="0.9" y="0.2" width="36" height="6"></rect>
                    <circle id="Oval" fill="#FFFFFF" cx="3.9" cy="3.2" r="1"></circle>
                    <circle id="Oval" fill="#FFFFFF" cx="7.9" cy="3.2" r="1"></circle>
                    <circle id="Oval" fill="#FFFFFF" cx="11.9" cy="3.2" r="1"></circle>
                </g>
                <path d="M0.9,6.2 L38.9,6.2" id="Shape" stroke="#000000" stroke-linecap="round" stroke-linejoin="round"></path>
            </g>

            <!--gray rec-->
            <rect class="gray" id="Rectangle-path" fill="#969696" fill-rule="nonzero" x="17.1" y="23.5" width="10.3" height="26.3"></rect>
            <!--arrow-->
            <path class="arrow" d="M41.2,39 C41.1,39.1 41.1,39.2 41.1,39.3 L45.2,48.7 C45.2,48.8 45.4,48.9 45.5,48.9 C45.6,48.9 45.7,48.8 45.8,48.7 L47.2,45 L51.2,43.5 C51.3,43.5 51.4,43.3 51.4,43.2 C51.4,43.1 51.3,43 51.2,42.9 L41.5,38.9 C41.4,38.9 41.3,38.9 41.2,39 Z" id="XMLID_2601_" stroke="#888B8D" fill="#FFFFFF" fill-rule="nonzero"></path>
        </g>
    </g>
</svg>
