<svg id="Layer_1" data-name="Layer 1" xmlns="http://www.w3.org/2000/svg" viewBox="0 0 1072 241"><defs><style>.cls-1{fill:#fff;}</style></defs><path class="cls-1" d="M150.1,7.7a5,5,0,0,0,.2-1.2,4.5,4.5,0,0,0-3.4-4.3h-1.3l-1.7-.2-1.7-.3h-1L137,.9C67.6-5.4,6.4,44.4.2,112.1c-5.4,58.8,32.5,111.6,87.9,128.8h0a10.9,10.9,0,0,0,2.6.4c4.4,0,7.5-3.7,8.3-7.7v-.2l1.2-5.2,8.3-36.8L150.1,7.8Z"/><path class="cls-1" d="M191.7,19.9h0l-.6-.2a1.1,1.1,0,0,0-1.1,1.1h0c.1,14.8-3.5,36.7-17.3,66.5,0,0-3.4,13.2,4.1,49.3,0,0,2,19.5-19.8,15.4,0,0-4.9,7.3-3,15.7,0,0-.7,7.9-9.5,6.2,0,0-4.1,1.5-3.6,8.2,0,0-.7,13.5-15.9,10.7l-2.7-.5h-.6a2.6,2.6,0,0,0-2.5,1.8h0c-1.6,5-6,20.1-6.1,31.6h0a5.4,5.4,0,0,0,4.6,5.3,28.1,28.1,0,0,0,5.5.3A115.4,115.4,0,0,0,191.7,19.9Z"/><path class="cls-1" d="M896,107.9c-10-1.6-33-3-33-17,0-9.3,9.4-14.3,17.7-14.3,18.2-.1,34.8,16.3,45.7,29.4l9-3.2L924.1,65.2c-4.9,4-11.1,7-17.1,7s-18.2-4.6-27.7-4.6c-20.9,0-39.2,15.7-39.1,37.3,0,26.5,26.7,33,47.7,37.4,10.6,2.3,26.5,5.9,26.5,19.5,0,9.7-9.6,13.9-17.9,13.9-21,0-38.3-16.8-50.6-32.3l-8.3,2.6,11.6,39.9a46.4,46.4,0,0,1,21.2-4.7c4.6,0,9,1.6,13.6,2.3,20.1,3,33,0,42.9-8.3s13.8-18.2,13.8-30.9C940.7,118.7,916.7,111.4,896,107.9Z"/><path class="cls-1" d="M822.1,174c-5.4-.9-10-4.1-10-14.6V107.5c0-23.5-13.4-39.9-33.9-39.9-15.2,0-27.6,10.2-38.9,19.6-6.5-11-16.6-19.6-30-19.6-15.2.1-28.4,10-39.2,19.7V65.4l-49.6,14v7.2c13.4,1.6,16.2,9.9,16.4,22.1v46.8c0,12.7-3.4,16.9-8.4,18.3h-.2l-.7.2c-1.8.5-5.6,2.2-4.5,7.2v.4h61v-.4c1.2-5-2.7-6.7-4.5-7.2l-.9-.2h0c-4.8-1.2-8.8-4.7-8.8-14.4V98.8c5.3-5.5,15-11.5,23.1-11.5,12.2-.1,14.7,10.8,14.7,20.7v47.5c.1,13.8-4,17.5-9.7,18.5-1.8.6-5.4,2.3-4.3,7.2v.4h61.4v-.3c1.5-6.5-5.4-7.4-5.4-7.4h0c-4.8-1.3-8.7-4.7-8.7-14.4V98.8c5.1-5.3,13.6-11.6,21.2-11.6s16.6,6,16.6,20.8v47.5c0,12.9-3.6,17-8.8,18.3h0l-.8.2c-1.8.5-5.7,2.1-4.6,7.2v.3h61.7v-.3C827.7,176.2,823.9,174.5,822.1,174Z"/><path class="cls-1" d="M537.4,174l-.7-.2h-.2c-4.6-1.3-8.3-4.9-8.5-14.3V108.1c0-17.8-15-31.8-32.5-31.8s-27.2,8.1-39.7,17.8V42.9L406.2,57v7.1c13.4,1.6,16.2-7.1,16.4,5.1v86.4c-.5,13.8-4.3,17.6-9.7,18.6-1.9.5-5.5,2.3-4.4,7.1v.4h59.7l.2-.9c.9-4.2-1.7-6.1-3.6-6.8l-1.6-.5H463c-3.9-1.6-7-5.3-7.1-13.9V104.7c6.9-3.5,14.3-8.8,22.2-8.8,13.8,0,16.8,12.4,16.8,15.7v44c-.5,12.5-3.6,16.7-8.2,18.2h-.3l-.9.3c-1.9.6-5.4,2.3-4.3,7.1v.5h60.6v-.4C543,176.2,539.3,174.5,537.4,174Z"/><circle class="cls-1" cx="303.2" cy="87.6" r="19.2" transform="translate(-11.5 63) rotate(-11.6)"/><path class="cls-1" d="M388.8,167.9c-8.1,0-7.6-7.2-7.9-12.9V105.8c0-10.6-.2-20.9-10.6-29.5-8.3-6.6-23.8-8.5-33.9-8.5h-3.8c-1.7.2-5,.8-5,2.8,0,0-.6,4.1,6.1,4.8h0c14.8.9,14,18,14,28.7v6.3c-24.4,3.9-72.8,12.7-72.8,45,0,20.3,15,29,33.9,29,15.2,0,27.2-4.6,38.9-13.9,4.9,8.6,13.2,13.9,22.9,13.9s20-6,25.6-13.9l-1.7-4.1A17,17,0,0,1,388.8,167.9Zm-63.2,2.8c-10.8,0-16.1-8.1-16.1-18.5-.1-21.9,19.8-29.5,38.2-31.6V158C342.4,164.2,334.1,170.7,325.6,170.7Z"/><path class="cls-1" d="M979.5,107.8a19.3,19.3,0,1,0-19.2-19.2A19.2,19.2,0,0,0,979.5,107.8Z"/><path class="cls-1" d="M1070.9,167.4a18.2,18.2,0,0,1-5.8,1.4c-8.1,0-7.6-7.2-7.9-12.9V106.8c0-10.6-.2-21-10.6-29.5-8.3-6.7-23.7-8.6-33.9-8.6H1009c-1.8.2-5.1.8-5.1,2.8,0,0-.6,4.1,6.1,4.8h0c14.8,1,14,18,14,28.8v6.2c-24.4,3.9-72.8,12.7-72.8,45,0,20.3,15,29,33.9,29,15.2,0,27.2-4.6,39-13.8,4.8,8.5,13.1,13.8,22.8,13.8s20-6,25.6-13.9Zm-69,4.2c-10.8,0-16.1-8.1-16.1-18.5,0-21.9,19.8-29.5,38.2-31.6v37.4C1018.7,165.1,1010.4,171.6,1001.9,171.6Z"/><circle class="cls-1" cx="582.8" cy="72.7" r="19.2" transform="translate(-2.7 119.2) rotate(-11.6)"/><path class="cls-1" d="M608.7,174l-1-.2h0c-4.7-1.2-8.5-4.7-8.7-14.3V103.8c-.2-2.1-1.3-1.8-1.9-1.5h-.4a27.9,27.9,0,0,1-28.6-.1h0s-2.1-1.7-2.3,1.5v1h0v50.8c0,13.6-4,17.4-9.5,18.5-1.9.6-5.4,2.3-4.3,7.1v.4H613v-.4C614.2,176.3,610.6,174.6,608.7,174Z"/></svg>